<svg viewBox="0 0 100 100" xmlns="http://www.w3.org/2000/svg"><path d="M58.5,69Q28,88,30,53.5Q32,19,60.5,34.5Q89,50,58.5,69Z" stroke="none" stroke-width="0" fill="#eae4f7"></path><path d="M57.5,68Q29,86,29.5,50.5Q30,15,58,32.5Q86,50,57.5,68Z" stroke="none" stroke-width="0" fill="#e4def4"></path><path d="M59,66Q31,82,30,47.5Q29,13,58,31.5Q87,50,59,66Z" stroke="none" stroke-width="0" fill="#ded8f1"></path><path d="M60.5,69.5Q28,89,26.5,48.5Q25,8,59,29Q93,50,60.5,69.5Z" stroke="none" stroke-width="0" fill="#d8d2ee"></path><path d="M58.5,67Q30,84,27.5,45.5Q25,7,56,28.5Q87,50,58.5,67Z" stroke="none" stroke-width="0" fill="#d2cceb"></path><path d="M57,71.5Q25,93,26.5,52.5Q28,12,58.5,31Q89,50,57,71.5Z" stroke="none" stroke-width="0" fill="#ccc6e8"></path><path d="M62.5,67.5Q30,85,29,48.5Q28,12,61.5,31Q95,50,62.5,67.5Z" stroke="none" stroke-width="0" fill="#c6c0e5"></path><path d="M59,69Q28,88,30,53.5Q32,19,61,34.5Q90,50,59,69Z" stroke="none" stroke-width="0" fill="#c0bae2"></path><path d="M62.5,68.5Q29,87,28,48.5Q27,10,61.5,30Q96,50,62.5,68.5Z" stroke="none" stroke-width="0" fill="#bab4df"></path><path d="M58.5,69Q28,88,28,50.5Q28,13,58.5,31.5Q89,50,58.5,69Z" stroke="none" stroke-width="0" fill="#b4aedc"></path><path d="M62.5,68.5Q29,87,27.5,47.5Q26,8,61,29Q96,50,62.5,68.5Z" stroke="none" stroke-width="0" fill="#aea8d9"></path><path d="M58,68.5Q29,87,30.5,52.5Q32,18,59.5,34Q87,50,58,68.5Z" stroke="none" stroke-width="0" fill="#a8a2d6"></path><path d="M60.5,66Q32,82,30.5,47.5Q29,13,59,31.5Q89,50,60.5,66Z" stroke="none" stroke-width="0" fill="#a29cd3"></path><path d="M65,65.5Q32,81,31,48Q30,15,64,32.5Q98,50,65,65.5Z" stroke="none" stroke-width="0" fill="#9c96d0"></path><path d="M59,66Q32,82,30.5,48Q29,14,57.5,32Q86,50,59,66Z" stroke="none" stroke-width="0" fill="#9690cd"></path><path d="M56,71.5Q25,93,26.5,52.5Q28,12,57.5,31Q87,50,56,71.5Z" stroke="none" stroke-width="0" fill="#908aca"></path><path d="M63.5,68Q29,86,28.5,48.5Q28,11,63,30.5Q98,50,63.5,68Z" stroke="none" stroke-width="0" fill="#8a84c7"></path><path d="M65,65.5Q32,81,29,45Q26,9,62,29.5Q98,50,65,65.5Z" stroke="none" stroke-width="0" fill="#847ec4"></path><path d="M58,68Q29,86,27.5,47.5Q26,9,56.5,29.5Q87,50,58,68Z" stroke="none" stroke-width="0" fill="#7e78c1"></path><path d="M61,67Q31,84,31.5,51Q32,18,61.5,34Q91,50,61,67Z" stroke="none" stroke-width="0" fill="#7872be"></path><path d="M60.5,66.5Q31,83,28,45Q25,7,57.5,28.5Q90,50,60.5,66.5Z" stroke="none" stroke-width="0" fill="#726cbb"></path><path d="M58,67Q30,84,29,48Q28,12,57,31Q86,50,58,67Z" stroke="none" stroke-width="0" fill="#6c66b8"></path><path d="M65,67.5Q30,85,30.5,50.5Q31,16,65.5,33Q100,50,65,67.5Z" stroke="none" stroke-width="0" fill="#6660b5"></path><path d="M62,71Q26,92,26,50Q26,8,62,29Q98,50,62,71Z" stroke="none" stroke-width="0" fill="#605ab2"></path><path d="M59.5,66.5Q31,83,30.5,49Q30,15,59,32.5Q88,50,59.5,66.5Z" stroke="none" stroke-width="0" fill="#5a54af"></path><path d="M59.5,69Q28,88,28.5,50.5Q29,13,60,31.5Q91,50,59.5,69Z" stroke="none" stroke-width="0" fill="#544eac"></path><path d="M61,71Q26,92,27,52Q28,12,62,31Q96,50,61,71Z" stroke="none" stroke-width="0" fill="#4e48a9"></path><path d="M58.5,70.5Q26,91,26,49.5Q26,8,58.5,29Q91,50,58.5,70.5Z" stroke="none" stroke-width="0" fill="#4842a6"></path><path d="M62,70.5Q26,91,25.5,49Q25,7,61.5,28.5Q98,50,62,70.5Z" stroke="none" stroke-width="0" fill="#423ca3"></path><path d="M61,68Q29,86,28,48Q27,10,60,30Q93,50,61,68Z" stroke="none" stroke-width="0" fill="#3c36a0"></path><path d="M61,69Q28,88,29,51.5Q30,15,62,32.5Q94,50,61,69Z" stroke="none" stroke-width="0" fill="#36309d"></path><path d="M59.5,67.5Q30,85,30,50Q30,15,59.5,32.5Q89,50,59.5,67.5Z" stroke="none" stroke-width="0" fill="#302a9a"></path></svg>